<svg width="19" height="18" viewBox="0 0 19 18" fill="none" xmlns="http://www.w3.org/2000/svg">
<path d="M14.94 13.8H5.804L3.572 1.528C3.54588 1.38104 3.46922 1.24782 3.35527 1.1514C3.24133 1.05499 3.09726 1.00143 2.948 1H1.5M14.94 13.8C14.0563 13.8 13.34 14.5163 13.34 15.4C13.34 16.2837 14.0563 17 14.94 17C15.8237 17 16.54 16.2837 16.54 15.4C16.54 14.5163 15.8237 13.8 14.94 13.8ZM5.22 10.6H15.268C15.5672 10.6009 15.8571 10.4963 16.0868 10.3047C16.3165 10.113 16.4713 9.8465 16.524 9.552L17.5 4.2H4.06M8.22 15.4C8.22 16.2837 7.50365 17 6.62 17C5.73634 17 5.02 16.2837 5.02 15.4C5.02 14.5163 5.73634 13.8 6.62 13.8C7.50365 13.8 8.22 14.5163 8.22 15.4Z" stroke="white" stroke-width="1.33" stroke-linecap="round" stroke-linejoin="round"/>
</svg>
