<svg width="41" height="32" viewBox="0 0 41 32" fill="none" xmlns="http://www.w3.org/2000/svg">
<path d="M40.3947 27.2499C40.4448 28.1861 40.1267 29.1046 39.5094 29.8064C38.892 30.5083 38.0249 30.9371 37.0959 31H4.10447C3.1753 30.9373 2.30808 30.5086 1.69052 29.8067C1.07296 29.1048 0.75481 28.1862 0.804946 27.2499V4.75011C0.75481 3.81374 1.07296 2.89518 1.69052 2.19329C2.30808 1.49141 3.1753 1.0627 4.10447 1H37.0916C38.0206 1.06292 38.8877 1.49173 39.5051 2.19358C40.1224 2.89544 40.4405 3.81388 40.3904 4.75011L40.3947 27.2499Z" fill="#EFEBEB" stroke="#BBBBBB"/>
<path d="M18.507 22.6447C22.1511 22.6447 25.1053 19.67 25.1053 16.0006C25.1053 12.3311 22.1511 9.35645 18.507 9.35645C14.8628 9.35645 11.9087 12.3311 11.9087 16.0006C11.9087 19.67 14.8628 22.6447 18.507 22.6447Z" fill="#009FDA"/>
<path d="M17.9658 9.35645C19.7158 9.35645 21.3941 10.0565 22.6315 11.3025C23.8689 12.5485 24.5641 14.2384 24.5641 16.0006C24.5641 17.7627 23.8689 19.4526 22.6315 20.6987C21.3941 21.9447 19.7158 22.6447 17.9658 22.6447V9.35645Z" fill="#009FDA"/>
<path d="M17.9658 22.6447V9.35645H22.6947C24.4447 9.35645 26.123 10.0565 27.3604 11.3025C28.5978 12.5485 29.293 14.2384 29.293 16.0006C29.293 17.7627 28.5978 19.4526 27.3604 20.6987C26.123 21.9447 24.4447 22.6447 22.6947 22.6447H17.9658Z" fill="#009FDA"/>
<path d="M18.5094 22.2713C21.9488 22.2713 24.7371 19.4637 24.7371 16.0004C24.7371 12.5371 21.9488 9.72949 18.5094 9.72949C15.07 9.72949 12.2817 12.5371 12.2817 16.0004C12.2817 19.4637 15.07 22.2713 18.5094 22.2713Z" fill="#F3F4F4"/>
<path d="M21.5429 15.9963C21.4755 15.1532 21.1613 14.3491 20.6401 13.6858C20.1189 13.0224 19.4141 12.5296 18.6147 12.2695V19.7231C19.4142 19.4633 20.1192 18.9705 20.6404 18.3071C21.1616 17.6437 21.4757 16.8395 21.5429 15.9963Z" fill="#009FDA"/>
<path d="M13.7124 15.9963C13.7798 16.8394 14.094 17.6434 14.6151 18.3068C15.1363 18.9702 15.8411 19.463 16.6405 19.7231V12.2729C15.8417 12.5329 15.1373 13.0252 14.6162 13.6879C14.0951 14.3505 13.7806 15.1538 13.7124 15.9963Z" fill="#009FDA"/>
<path opacity="0.08" d="M39.4175 1.97607C40.0505 2.71487 40.395 3.66026 40.387 4.63597V27.2334C40.3954 28.2091 40.0508 29.1546 39.4175 29.8933C39.1302 30.2346 38.7735 30.5101 38.3716 30.701C37.9696 30.8919 37.5317 30.9938 37.0874 30.9999H4.10112C3.65671 30.994 3.21872 30.8922 2.81675 30.7012C2.41477 30.5103 2.05817 30.2348 1.771 29.8933L39.4175 1.97607Z" fill="black"/>
<path d="M37.0916 1.74986C37.8351 1.79967 38.529 2.14257 39.023 2.70422C39.5171 3.26587 39.7713 4.00096 39.7306 4.75011V27.2499C39.7713 27.999 39.5171 28.7341 39.023 29.2958C38.529 29.8574 37.8351 30.2003 37.0916 30.2502H4.10447C3.36102 30.2003 2.66706 29.8574 2.17305 29.2958C1.67903 28.7341 1.42481 27.999 1.46551 27.2499V4.75011C1.42481 4.00096 1.67903 3.26587 2.17305 2.70422C2.66706 2.14257 3.36102 1.79967 4.10447 1.74986H37.0916ZM37.0916 1H4.10447C3.1753 1.0627 2.30807 1.49141 1.69052 2.19329C1.07296 2.89518 0.75481 3.81374 0.804946 4.75011V27.2499C0.75481 28.1862 1.07296 29.1048 1.69052 29.8067C2.30807 30.5086 3.1753 30.9373 4.10447 31H37.0916C38.0206 30.9371 38.8877 30.5083 39.505 29.8064C40.1224 29.1046 40.4405 28.1861 40.3904 27.2499V4.75011C40.4405 3.81388 40.1224 2.89544 39.505 2.19358C38.8877 1.49173 38.0206 1.06292 37.0916 1Z" fill="#F8F8F9"/>
</svg>
