<svg width="44" height="32" viewBox="0 0 44 32" fill="none" xmlns="http://www.w3.org/2000/svg">
<path d="M43.9943 27.9999C44.05 28.9985 43.6966 29.9782 43.0106 30.7269C42.3247 31.4755 41.3612 31.9329 40.329 32H3.67103C2.63876 31.9329 1.67534 31.4755 0.989356 30.7269C0.303366 29.9782 -0.0500006 28.9985 0.00571573 27.9999V4.00012C-0.0500006 3.00147 0.303366 2.0218 0.989356 1.27316C1.67534 0.524507 2.63876 0.0671114 3.67103 0H40.3242C41.3565 0.0671114 42.3199 0.524507 43.0059 1.27316C43.6919 2.0218 44.0452 3.00147 43.9895 4.00012L43.9943 27.9999Z" fill="#5EC1EC"/>
<path d="M42.908 1.04116C43.6114 1.82921 43.9942 2.83762 43.9852 3.87838V27.9823C43.9946 29.0231 43.6117 30.0316 42.908 30.8195C42.5888 31.1837 42.1925 31.4775 41.7459 31.6811C41.2993 31.8847 40.8127 31.9934 40.3189 31.9999H3.66672C3.17292 31.9936 2.68629 31.885 2.23964 31.6813C1.79299 31.4777 1.39673 31.1838 1.07764 30.8195L42.908 1.04116Z" fill="#5BBBE6"/>
<path d="M12.8717 19.5187L12.5362 18.2858H10.3255L9.98139 19.5187H7.96143L10.1816 12.9155H12.6344L14.8812 19.5187H12.8717ZM12.1558 16.828L11.8622 15.749C11.7936 15.5094 11.7116 15.1961 11.6124 14.8183C11.5133 14.4405 11.4504 14.1641 11.4218 14C11.3951 14.153 11.3389 14.4046 11.2569 14.7557C11.1749 15.1067 10.9919 15.7978 10.7097 16.829L12.1558 16.828Z" fill="white"/>
<path d="M18.5818 19.5197L17.19 14.7824H17.1481C17.2116 15.589 17.2434 16.2159 17.2434 16.6631V19.5197H15.6152V12.9413H18.0623L19.4827 17.6114H19.5198L20.9106 12.9413H23.3634V19.5188H21.6733V16.6355C21.6733 16.4862 21.6733 16.3204 21.6809 16.137C21.6885 15.9536 21.7066 15.5058 21.7438 14.7917H21.7019L20.3358 19.5197H18.5818Z" fill="white"/>
<path d="M28.6845 19.5188H24.6445V12.9413H28.6845V14.3678H26.4824V15.4026H28.5215V16.8281H26.4824V18.0693H28.6845V19.5188Z" fill="white"/>
<path d="M36.0041 19.5188H33.8783L32.5504 17.464L31.2387 19.5188H29.1577L31.4141 16.1536L29.2921 12.9413H31.3331L32.5618 14.9741L33.7429 12.9413H35.8401L33.6857 16.2928L36.0041 19.5188Z" fill="white"/>
<path d="M12.8717 19.5187L12.5362 18.2858H10.3255L9.98139 19.5187H7.96143L10.1816 12.9155H12.6344L14.8812 19.5187H12.8717ZM12.1558 16.828L11.8622 15.749C11.7936 15.5094 11.7116 15.1961 11.6124 14.8183C11.5133 14.4405 11.4504 14.1641 11.4218 14C11.3951 14.153 11.3389 14.4046 11.2569 14.7557C11.1749 15.1067 10.9919 15.7978 10.7097 16.829L12.1558 16.828Z" fill="white"/>
<path d="M18.5818 19.5197L17.19 14.7824H17.1481C17.2116 15.589 17.2434 16.2159 17.2434 16.6631V19.5197H15.6152V12.9413H18.0623L19.4827 17.6114H19.5198L20.9106 12.9413H23.3634V19.5188H21.6733V16.6355C21.6733 16.4862 21.6733 16.3204 21.6809 16.137C21.6885 15.9536 21.7066 15.5058 21.7438 14.7917H21.7019L20.3358 19.5197H18.5818Z" fill="white"/>
<path d="M28.6845 19.5188H24.6445V12.9413H28.6845V14.3678H26.4824V15.4026H28.5215V16.8281H26.4824V18.0693H28.6845V19.5188Z" fill="white"/>
<path d="M36.0041 19.5188H33.8783L32.5504 17.464L31.2387 19.5188H29.1577L31.4141 16.1536L29.2921 12.9413H31.3331L32.5618 14.9741L33.7429 12.9413H35.8401L33.6857 16.2928L36.0041 19.5188Z" fill="white"/>
<path d="M40.3242 0.799849C41.1503 0.852976 41.9214 1.21874 42.4703 1.81783C43.0192 2.41692 43.3017 3.20103 43.2565 4.00012V27.9999C43.3017 28.799 43.0192 29.5831 42.4703 30.1822C41.9214 30.7813 41.1503 31.147 40.3242 31.2002H3.67103C2.84496 31.147 2.07385 30.7813 1.52493 30.1822C0.976013 29.5831 0.693534 28.799 0.738762 27.9999V4.00012C0.693534 3.20103 0.976013 2.41692 1.52493 1.81783C2.07385 1.21874 2.84496 0.852976 3.67103 0.799849H40.3242ZM40.3242 0H3.67103C2.63876 0.0671114 1.67534 0.524507 0.989356 1.27316C0.303366 2.0218 -0.0500006 3.00147 0.00571573 4.00012V27.9999C-0.0500006 28.9985 0.303366 29.9782 0.989356 30.7269C1.67534 31.4755 2.63876 31.9329 3.67103 32H40.3242C41.3565 31.9329 42.3199 31.4755 43.0059 30.7269C43.6919 29.9782 44.0452 28.9985 43.9895 27.9999V4.00012C44.0452 3.00147 43.6919 2.0218 43.0059 1.27316C42.3199 0.524507 41.3565 0.0671114 40.3242 0Z" fill="#9BCEE0"/>
</svg>
