<svg width="40" height="30" viewBox="0 0 40 30" fill="none" xmlns="http://www.w3.org/2000/svg">
<path d="M39.9948 26.2499C40.0449 27.1861 39.7268 28.1046 39.1093 28.8064C38.4919 29.5083 37.6247 29.9371 36.6956 30H3.70416C2.77502 29.9371 1.90788 29.5083 1.29042 28.8064C0.672962 28.1046 0.354897 27.1861 0.405047 26.2499V3.75009C0.354897 2.81386 0.672962 1.89542 1.29042 1.19356C1.90788 0.491699 2.77502 0.062917 3.70416 0H36.6956C37.6247 0.062917 38.4919 0.491699 39.1093 1.19356C39.7268 1.89542 40.0449 2.81386 39.9948 3.75009V26.2499Z" fill="#CDCDCD"/>
<path d="M39.7708 4.85229H1.55566V10.1678H39.7708V4.85229Z" fill="#424143"/>
<path d="M29.2705 14.1099H5.51416V19.4253H29.2705V14.1099Z" fill="white"/>
<path d="M26.6309 16.064H7.49414V17.3926H26.6309V16.064Z" fill="#424143"/>
<path d="M36.6956 0.749833C37.4391 0.799639 38.1332 1.14255 38.6273 1.70419C39.1213 2.26584 39.3756 3.00094 39.3349 3.75009V26.2499C39.3756 26.999 39.1213 27.7341 38.6273 28.2958C38.1332 28.8574 37.4391 29.2003 36.6956 29.2501H3.70416C2.96062 29.2003 2.26656 28.8574 1.77249 28.2958C1.27841 27.7341 1.02415 26.999 1.06486 26.2499V3.75009C1.02415 3.00094 1.27841 2.26584 1.77249 1.70419C2.26656 1.14255 2.96062 0.799639 3.70416 0.749833H36.6956ZM36.6956 0H3.70416C2.77502 0.062917 1.90788 0.491699 1.29042 1.19356C0.672961 1.89542 0.354897 2.81386 0.405047 3.75009V26.2499C0.354897 27.1861 0.672961 28.1046 1.29042 28.8064C1.90788 29.5083 2.77502 29.9371 3.70416 30H36.6956C37.6247 29.9371 38.4919 29.5083 39.1093 28.8064C39.7268 28.1046 40.0449 27.1861 39.9948 26.2499V3.75009C40.0449 2.81386 39.7268 1.89542 39.1093 1.19356C38.4919 0.491699 37.6247 0.062917 36.6956 0V0Z" fill="#DFDEDD"/>
<path d="M36.5319 14.1099H31.2524V19.4253H36.5319V14.1099Z" fill="white"/>
<path d="M35.871 16.064H31.9111V17.3926H35.871V16.064Z" fill="#424143"/>
<path d="M33.5612 21.9071C36.3855 21.9071 38.675 19.6019 38.675 16.7584C38.675 13.9148 36.3855 11.6096 33.5612 11.6096C30.7368 11.6096 28.4473 13.9148 28.4473 16.7584C28.4473 19.6019 30.7368 21.9071 33.5612 21.9071Z" stroke="#E9564B" stroke-width="2" stroke-miterlimit="10"/>
</svg>
