<svg width="41" height="30" viewBox="0 0 41 30" fill="none" xmlns="http://www.w3.org/2000/svg">
<path d="M40.195 26.2499C40.2451 27.1861 39.9271 28.1046 39.3097 28.8064C38.6923 29.5083 37.8252 29.9371 36.8962 30H3.90403C2.97499 29.9371 2.10792 29.5083 1.49053 28.8064C0.87314 28.1046 0.555097 27.1861 0.605242 26.2499V3.75011C0.555097 2.81388 0.87314 1.89544 1.49053 1.19358C2.10792 0.491725 2.97499 0.0629169 3.90403 0H36.8919C37.8209 0.0629169 38.688 0.491725 39.3054 1.19358C39.9228 1.89544 40.2408 2.81388 40.1907 3.75011L40.195 26.2499Z" fill="#5565AF"/>
<path opacity="0.04" d="M39.2177 0.976074C39.8507 1.71487 40.1953 2.66026 40.1872 3.63597V26.2334C40.1956 27.2091 39.851 28.1546 39.2177 28.8933C38.9304 29.2346 38.5737 29.5101 38.1718 29.701C37.7698 29.8919 37.3319 29.9938 36.8875 29.9999H3.90049C3.45607 29.994 3.01808 29.8922 2.6161 29.7012C2.21412 29.5103 1.85749 29.2348 1.57031 28.8933L39.2177 0.976074Z" fill="white"/>
<path d="M20.3939 10.6154C19.5087 9.60061 18.3373 8.88157 17.0359 8.55414C15.7345 8.22671 14.3649 8.30644 13.1096 8.78271C11.8544 9.25898 10.7731 10.1092 10.0099 11.22C9.24673 12.3308 8.83789 13.6494 8.83789 15.0001C8.83789 16.3508 9.24673 17.6694 10.0099 18.7802C10.7731 19.891 11.8544 20.7412 13.1096 21.2174C14.3649 21.6937 15.7345 21.7734 17.0359 21.446C18.3373 21.1186 19.5087 20.3995 20.3939 19.3847C19.3312 18.1748 18.7445 16.6153 18.7445 15.0001C18.7445 13.3848 19.3312 11.8253 20.3939 10.6154Z" fill="#EA564B"/>
<path d="M20.3982 10.6155C19.3353 11.8253 18.7485 13.3848 18.7485 15.0001C18.7485 16.6154 19.3353 18.1749 20.3982 19.3847C21.461 18.1748 22.0476 16.6154 22.0476 15.0001C22.0476 13.3849 21.461 11.8254 20.3982 10.6155Z" fill="#EA564B"/>
<path d="M25.3451 8.35645C24.4081 8.3564 23.4818 8.55792 22.6284 8.94752C21.7749 9.33711 21.014 9.90579 20.3965 10.6155C20.1112 10.9445 19.8583 11.3006 19.6415 11.6789H21.1515C21.3905 12.0995 21.5833 12.545 21.7263 13.0076H19.0581C18.9208 13.4397 18.8282 13.8849 18.7819 14.3362H22.0009C22.0271 14.5567 22.042 14.7785 22.0455 15.0006C22.0455 15.2252 22.0326 15.4463 22.0103 15.6649H18.7793C18.8256 16.1162 18.9182 16.5614 19.0555 16.9935H21.7315C21.5855 17.4565 21.3895 17.9021 21.1472 18.3222H19.6372C19.8542 18.7001 20.107 19.056 20.3922 19.3847C21.1204 20.2183 22.0445 20.8547 23.08 21.2358C24.1155 21.6169 25.2294 21.7306 26.3197 21.5665C27.4101 21.4023 28.4423 20.9656 29.3218 20.2962C30.2013 19.6268 30.9001 18.7461 31.3544 17.7346C31.8087 16.7231 32.0039 15.613 31.9222 14.5059C31.8406 13.3988 31.4846 12.33 30.8868 11.3972C30.2891 10.4644 29.4687 9.69732 28.5006 9.16612C27.5325 8.63493 26.4476 8.35655 25.3451 8.35645Z" fill="#E9D419"/>
<path d="M36.8919 0.749859C37.6353 0.799665 38.3293 1.14257 38.8234 1.70422C39.3174 2.26587 39.5716 3.00096 39.5309 3.75011V26.2499C39.5716 26.999 39.3174 27.7341 38.8234 28.2958C38.3293 28.8574 37.6353 29.2003 36.8919 29.2502H3.90403C3.16056 29.2003 2.46656 28.8574 1.97253 28.2958C1.47851 27.7341 1.22429 26.999 1.265 26.2499V3.75011C1.22429 3.00096 1.47851 2.26587 1.97253 1.70422C2.46656 1.14257 3.16056 0.799665 3.90403 0.749859H36.8919ZM36.8919 0H3.90403C2.97498 0.0629169 2.10792 0.491725 1.49053 1.19358C0.87314 1.89544 0.555097 2.81388 0.605242 3.75011V26.2499C0.555097 27.1861 0.87314 28.1046 1.49053 28.8064C2.10792 29.5083 2.97498 29.9371 3.90403 30H36.8919C37.8209 29.9371 38.688 29.5083 39.3054 28.8064C39.9228 28.1046 40.2408 27.1861 40.1907 26.2499V3.75011C40.2408 2.81388 39.9228 1.89544 39.3054 1.19358C38.688 0.491725 37.8209 0.0629169 36.8919 0V0Z" fill="#7684B7"/>
</svg>
