<svg width="40" height="30" viewBox="0 0 40 30" fill="none" xmlns="http://www.w3.org/2000/svg">
<path d="M39.5949 26.2499C39.645 27.1861 39.327 28.1046 38.7096 28.8064C38.0922 29.5083 37.2251 29.9371 36.2961 30H3.30393C2.37489 29.9371 1.50782 29.5083 0.890433 28.8064C0.273043 28.1046 -0.0450008 27.1861 0.00514398 26.2499V3.75011C-0.0450008 2.81388 0.273043 1.89544 0.890433 1.19358C1.50782 0.491725 2.37489 0.0629169 3.30393 0H36.2918C37.2208 0.0629169 38.0879 0.491725 38.7053 1.19358C39.3227 1.89544 39.6407 2.81388 39.5906 3.75011L39.5949 26.2499Z" fill="#F3F4F4"/>
<path d="M0.662109 6.64412V3.32249C0.664603 2.44149 1.01351 1.59733 1.63252 0.974687C2.25152 0.352044 3.09024 0.00159535 3.96519 0H35.637C36.511 0.00273398 37.3485 0.353566 37.9666 0.9759C38.5846 1.59823 38.933 2.44152 38.9357 3.32162V6.64325" fill="#5565AF"/>
<path d="M38.9295 23.3557V26.6773C38.9295 28.5044 37.4453 29.3346 35.6307 29.3346H3.96236C2.14782 29.3346 0.663574 28.5044 0.663574 26.6773V23.3557" fill="#E6A124"/>
<path d="M11.4692 17.2447C11.6324 16.7455 11.8217 16.2552 12.0363 15.7761L14.2669 11.2079H15.897L12.0406 18.7962H10.3187L9.66406 11.2079H11.1852L11.4477 15.7761C11.4606 15.9316 11.4683 16.1631 11.4683 16.4672C11.4606 16.824 11.4503 17.084 11.4374 17.2447H11.4692Z" fill="#5565AF"/>
<path d="M15.2139 18.7963L16.8225 11.208H18.3951L16.7865 18.7963H15.2139Z" fill="#5565AF"/>
<path d="M23.2138 16.5546C23.2275 16.8805 23.1657 17.2052 23.0333 17.5029C22.9009 17.8007 22.7016 18.0634 22.4511 18.2702C21.8568 18.7184 21.1249 18.9417 20.3835 18.9009C19.7393 18.9317 19.1005 18.769 18.5483 18.4335V17.0107C19.1058 17.3533 19.7412 17.5463 20.3938 17.5714C20.7094 17.5898 21.0233 17.5131 21.2955 17.3511C21.3972 17.2875 21.4807 17.1983 21.5376 17.0922C21.5944 16.9861 21.6228 16.8669 21.6198 16.7464C21.6223 16.6123 21.5987 16.4791 21.5503 16.3542C21.5016 16.2392 21.4347 16.133 21.3521 16.0397C21.1525 15.8473 20.9389 15.6703 20.7129 15.5101C20.3126 15.245 19.9718 14.8983 19.7126 14.4925C19.5212 14.1635 19.4213 13.7887 19.4234 13.4075C19.4163 12.9864 19.5269 12.5718 19.7426 12.211C19.9607 11.8547 20.277 11.5699 20.6529 11.3912C21.0772 11.1888 21.5424 11.0886 22.0119 11.0983C22.7265 11.0905 23.4313 11.2672 24.0589 11.6114L23.497 12.8209C23.0365 12.5841 22.5295 12.4531 22.0127 12.4373C21.7585 12.4263 21.5091 12.5096 21.3118 12.6714C21.2226 12.7467 21.1516 12.8414 21.1043 12.9485C21.057 13.0555 21.0347 13.172 21.0389 13.2891C21.0351 13.4873 21.0953 13.6813 21.2105 13.842C21.4302 14.0899 21.6877 14.301 21.9732 14.4675C22.3458 14.7021 22.6638 15.0147 22.9058 15.384C23.1162 15.7371 23.223 16.1429 23.2138 16.5546Z" fill="#5565AF"/>
<path d="M28.2716 16.99H25.8333L24.9462 18.7963H23.2964L27.2429 11.176H29.1664L29.924 18.7963H28.3943L28.2716 16.99ZM28.1935 15.6406L28.0597 13.8264C28.0248 13.3732 28.0076 12.9352 28.0082 12.5124V12.3258C27.8566 12.7411 27.6693 13.1805 27.4463 13.6441L26.4768 15.6423L28.1935 15.6406Z" fill="#5565AF"/>
<path opacity="0.04" d="M38.6176 0.976074C39.2506 1.71487 39.5952 2.66026 39.5871 3.63597V26.2334C39.5955 27.2091 39.2509 28.1546 38.6176 28.8933C38.3303 29.2347 37.9737 29.5101 37.5717 29.701C37.1697 29.8919 36.7318 29.9938 36.2874 29.9999H3.30039C2.85597 29.9941 2.41797 29.8922 2.01598 29.7013C1.61398 29.5104 1.25736 29.2349 0.970215 28.8933L38.6176 0.976074Z" fill="white"/>
<path d="M36.2918 0.749859C37.0352 0.799665 37.7292 1.14257 38.2233 1.70422C38.7173 2.26587 38.9715 3.00096 38.9308 3.75011V26.2499C38.9715 26.999 38.7173 27.7341 38.2233 28.2958C37.7292 28.8574 37.0352 29.2003 36.2918 29.2502H3.30393C2.56047 29.2003 1.86646 28.8574 1.37244 28.2958C0.878411 27.7341 0.624193 26.999 0.664899 26.2499V3.75011C0.624193 3.00096 0.878411 2.26587 1.37244 1.70422C1.86646 1.14257 2.56047 0.799665 3.30393 0.749859H36.2918ZM36.2918 0H3.30393C2.37489 0.0629169 1.50782 0.491725 0.890433 1.19358C0.273043 1.89544 -0.0450007 2.81388 0.00514398 3.75011V26.2499C-0.0450007 27.1861 0.273043 28.1046 0.890433 28.8064C1.50782 29.5083 2.37489 29.9371 3.30393 30H36.2918C37.2208 29.9371 38.0879 29.5083 38.7053 28.8064C39.3227 28.1046 39.6407 27.1861 39.5906 26.2499V3.75011C39.6407 2.81388 39.3227 1.89544 38.7053 1.19358C38.0879 0.491725 37.2208 0.0629169 36.2918 0Z" fill="#F8F8F9"/>
</svg>
