<svg width="13" height="18" viewBox="0 0 13 18" fill="none" xmlns="http://www.w3.org/2000/svg">
<path d="M6.49997 1.08331V16.9166M10.7628 5.95511C10.7628 5.55525 10.684 5.15931 10.531 4.78989C10.378 4.42047 10.1537 4.0848 9.87097 3.80206C9.58822 3.51932 9.25256 3.29503 8.88314 3.14201C8.51372 2.98899 8.11778 2.91024 7.71792 2.91024H4.97753C4.16998 2.91024 3.39551 3.23103 2.82448 3.80206C2.25346 4.37308 1.93266 5.14756 1.93266 5.95511C1.93266 6.76266 2.25346 7.53713 2.82448 8.10816C3.39551 8.67918 4.16998 8.99998 4.97753 8.99998H8.32689C9.13444 8.99998 9.90892 9.32078 10.4799 9.8918C11.051 10.4628 11.3718 11.2373 11.3718 12.0449C11.3718 12.8524 11.051 13.6269 10.4799 14.1979C9.90892 14.7689 9.13444 15.0897 8.32689 15.0897H4.67305C3.8655 15.0897 3.09102 14.7689 2.52 14.1979C1.94897 13.6269 1.62817 12.8524 1.62817 12.0449" stroke="#1A1E82" stroke-width="1.33" stroke-linecap="round" stroke-linejoin="round"/>
</svg>
