<svg width="19" height="20" viewBox="0 0 19 20" fill="none" xmlns="http://www.w3.org/2000/svg">
<mask id="path-1-inside-1_3500_1614" fill="white">
<path d="M14.8177 15.0338C14.4513 15.0351 14.0882 14.9639 13.7495 14.8241C13.4108 14.6843 13.1032 14.4787 12.8444 14.2194L9.99408 11.3672C9.89326 11.2708 9.75915 11.217 9.61966 11.217C9.48016 11.217 9.34605 11.2708 9.24523 11.3672L6.38527 14.2272C6.12663 14.4869 5.81908 14.6929 5.48039 14.8331C5.1417 14.9733 4.77858 15.045 4.41201 15.0441H3.85399L7.46581 18.6559C8.00751 19.1964 8.74152 19.5 9.50679 19.5C10.2721 19.5 11.0061 19.1964 11.5478 18.6559L15.1668 15.0362L14.8177 15.0338Z"/>
<path d="M4.41262 4.95443C4.77919 4.95345 5.14232 5.02514 5.48101 5.16535C5.81971 5.30556 6.12725 5.51152 6.38587 5.77131L9.24583 8.63187C9.34524 8.73097 9.47989 8.78662 9.62026 8.78662C9.76063 8.78662 9.89527 8.73097 9.99468 8.63187L12.8444 5.78214C13.1028 5.52203 13.4103 5.31582 13.749 5.17549C14.0878 5.03516 14.451 4.9635 14.8177 4.96467H15.1608L11.5417 1.34562C11.2738 1.07753 10.9556 0.864869 10.6054 0.719774C10.2552 0.57468 9.87983 0.5 9.50077 0.5C9.1217 0.5 8.74635 0.57468 8.39615 0.719774C8.04596 0.864869 7.72778 1.07753 7.45979 1.34562L3.85399 4.95443H4.41262Z"/>
<path d="M18.1544 7.95886L15.9674 5.77191C15.9181 5.79207 15.8654 5.80269 15.8121 5.80321H14.8177C14.3002 5.80451 13.8041 6.01002 13.4373 6.37508L10.5876 9.223C10.331 9.47918 9.98317 9.62306 9.62055 9.62306C9.25793 9.62306 8.91013 9.47918 8.65348 9.223L5.79292 6.36425C5.42625 5.99897 4.93018 5.79323 4.41261 5.79177H3.19181C3.1415 5.79064 3.09178 5.78066 3.04493 5.76228L0.84413 7.95886C0.303581 8.50056 0 9.23458 0 9.99984C0 10.7651 0.303581 11.4991 0.84413 12.0408L3.04012 14.2368C3.08686 14.2181 3.13665 14.2081 3.187 14.2073H4.41261C4.93017 14.2058 5.42621 14.0001 5.79292 13.6348L8.65288 10.7749C9.16997 10.2584 10.0711 10.2584 10.5876 10.7749L13.4373 13.624C13.8041 13.9891 14.3002 14.1946 14.8177 14.1959H15.8121C15.8654 14.1962 15.9181 14.2069 15.9674 14.2272L18.1544 12.0402C18.4225 11.7722 18.6351 11.4541 18.7802 11.1039C18.9253 10.7537 19 10.3783 19 9.99924C19 9.62018 18.9253 9.24483 18.7802 8.89463C18.6351 8.54443 18.4225 8.22625 18.1544 7.95826"/>
</mask>
<path d="M14.8177 15.0338L14.8268 13.7038L14.8128 13.7038L14.8177 15.0338ZM12.8444 14.2194L13.7859 13.28L13.7852 13.2792L12.8444 14.2194ZM9.99408 11.3672L10.9348 10.4271L10.9242 10.4164L10.9133 10.406L9.99408 11.3672ZM9.24523 11.3672L8.32605 10.406L8.3153 10.4162L8.30478 10.4268L9.24523 11.3672ZM6.38527 14.2272L5.44482 13.2867L5.44278 13.2888L6.38527 14.2272ZM4.41201 15.0441L4.41545 13.7141H4.41201V15.0441ZM3.85399 15.0441V13.7141H0.643084L2.91354 15.9845L3.85399 15.0441ZM7.46581 18.6559L6.52536 19.5963L6.52636 19.5973L7.46581 18.6559ZM9.50679 19.5V20.83V19.5ZM11.5478 18.6559L12.4872 19.5973L12.4883 19.5962L11.5478 18.6559ZM15.1668 15.0362L16.1073 15.9766L18.3554 13.7282L15.176 13.7063L15.1668 15.0362ZM4.41262 4.95443V6.28444L4.41617 6.28443L4.41262 4.95443ZM6.38587 5.77131L5.4433 6.70963L5.44532 6.71166L6.38587 5.77131ZM9.24583 8.63187L8.30528 9.57222L8.30683 9.57377L9.24583 8.63187ZM9.99468 8.63187L10.9337 9.57377L10.9351 9.57232L9.99468 8.63187ZM12.8444 5.78214L13.7849 6.7226L13.7879 6.7195L12.8444 5.78214ZM14.8177 4.96467L14.8134 6.29467H14.8177V4.96467ZM15.1608 4.96467V6.29467H18.3717L16.1012 4.02421L15.1608 4.96467ZM11.5417 1.34562L10.6011 2.2859L10.6013 2.28608L11.5417 1.34562ZM9.50077 0.5V-0.83V0.5ZM7.45979 1.34562L6.51916 0.405346L6.51894 0.405564L7.45979 1.34562ZM3.85399 4.95443L2.91314 4.01437L0.644978 6.28443H3.85399V4.95443ZM15.9674 5.77191L16.9079 4.83146L16.2827 4.20625L15.4642 4.54077L15.9674 5.77191ZM15.8121 5.80321V7.13327L15.8251 7.13315L15.8121 5.80321ZM14.8177 5.80321V4.47321L14.8143 4.47321L14.8177 5.80321ZM13.4373 6.37508L12.4991 5.43242L12.4972 5.43433L13.4373 6.37508ZM10.5876 9.223L11.5272 10.1643L11.5278 10.1638L10.5876 9.223ZM8.65348 9.223L7.71333 10.1637L7.71389 10.1643L8.65348 9.223ZM5.79292 6.36425L6.73308 5.4235L6.73158 5.422L5.79292 6.36425ZM4.41261 5.79177L4.41635 4.46177H4.41261V5.79177ZM3.19181 5.79177L3.16187 7.12144L3.17684 7.12177H3.19181V5.79177ZM3.04493 5.76228L3.53066 4.52414L2.72098 4.2065L2.10538 4.82092L3.04493 5.76228ZM0.84413 7.95886L-0.0954227 7.01751L-0.0973224 7.01941L0.84413 7.95886ZM0 9.99984H-1.33H0ZM0.84413 12.0408L-0.0973229 12.9803L-0.0963226 12.9813L0.84413 12.0408ZM3.04012 14.2368L2.09966 15.1773L2.72003 15.7976L3.5345 15.4715L3.04012 14.2368ZM3.187 14.2073V12.8773H3.17668L3.16637 12.8775L3.187 14.2073ZM4.41261 14.2073V15.5373L4.41651 15.5373L4.41261 14.2073ZM5.79292 13.6348L6.73146 14.5772L6.73338 14.5753L5.79292 13.6348ZM8.65288 10.7749L7.71298 9.83388L7.71243 9.83443L8.65288 10.7749ZM10.5876 10.7749L9.64716 11.7153L9.64726 11.7154L10.5876 10.7749ZM13.4373 13.624L12.497 14.5646L12.4991 14.5667L13.4373 13.624ZM14.8177 14.1959L14.8143 15.5259H14.8177V14.1959ZM15.8121 14.1959L15.8214 12.8659H15.8121V14.1959ZM15.9674 14.2272L15.4608 15.4569L16.2808 15.7947L16.9079 15.1676L15.9674 14.2272ZM18.1544 12.0402L17.2141 11.0996L17.2139 11.0998L18.1544 12.0402ZM14.8128 13.7038C14.6222 13.7045 14.4332 13.6674 14.257 13.5947L13.2421 16.0534C13.7432 16.2603 14.2804 16.3658 14.8225 16.3638L14.8128 13.7038ZM14.257 13.5947C14.0807 13.5219 13.9206 13.4149 13.7859 13.28L11.9029 15.1587C12.2858 15.5425 12.741 15.8466 13.2421 16.0534L14.257 13.5947ZM13.7852 13.2792L10.9348 10.4271L9.05333 12.3074L11.9037 15.1595L13.7852 13.2792ZM10.9133 10.406C10.5649 10.0729 10.1016 9.88701 9.61966 9.88701V12.547C9.41671 12.547 9.22159 12.4687 9.0749 12.3285L10.9133 10.406ZM9.61966 9.88701C9.13773 9.88701 8.67437 10.0729 8.32605 10.406L10.1644 12.3285C10.0177 12.4687 9.8226 12.547 9.61966 12.547V9.88701ZM8.30478 10.4268L5.44482 13.2867L7.32572 15.1676L10.1857 12.3077L8.30478 10.4268ZM5.44278 13.2888C5.30813 13.424 5.14801 13.5312 4.97167 13.6042L5.98911 16.0619C6.49016 15.8545 6.94514 15.5499 7.32776 15.1656L5.44278 13.2888ZM4.97167 13.6042C4.79534 13.6772 4.60629 13.7145 4.41545 13.7141L4.40858 16.374C4.95087 16.3754 5.48806 16.2694 5.98911 16.0619L4.97167 13.6042ZM4.41201 13.7141H3.85399V16.3741H4.41201V13.7141ZM2.91354 15.9845L6.52536 19.5963L8.40626 17.7154L4.79444 14.1036L2.91354 15.9845ZM6.52636 19.5973C7.3174 20.3867 8.38927 20.83 9.50679 20.83V18.17C9.09377 18.17 8.69762 18.0062 8.40526 17.7144L6.52636 19.5973ZM9.50679 20.83C10.6243 20.83 11.6962 20.3867 12.4872 19.5973L10.6083 17.7144C10.316 18.0062 9.91981 18.17 9.50679 18.17V20.83ZM12.4883 19.5962L16.1073 15.9766L14.2263 14.0959L10.6072 17.7155L12.4883 19.5962ZM15.176 13.7063L14.8268 13.7038L14.8085 16.3638L15.1576 16.3662L15.176 13.7063ZM4.41617 6.28443C4.60698 6.28392 4.79599 6.32123 4.9723 6.39422L5.98973 3.93649C5.48864 3.72905 4.9514 3.62299 4.40907 3.62444L4.41617 6.28443ZM4.9723 6.39422C5.1486 6.4672 5.30868 6.5744 5.4433 6.70963L7.32845 4.83298C6.94583 4.44863 6.49082 4.14393 5.98973 3.93649L4.9723 6.39422ZM5.44532 6.71166L8.30528 9.57222L10.1864 7.69151L7.32642 4.83095L5.44532 6.71166ZM8.30683 9.57377C8.65554 9.9214 9.12785 10.1166 9.62026 10.1166V7.45662C9.83192 7.45662 10.0349 7.54054 10.1848 7.68997L8.30683 9.57377ZM9.62026 10.1166C10.1127 10.1166 10.585 9.92141 10.9337 9.57377L9.05568 7.68997C9.20557 7.54053 9.4086 7.45662 9.62026 7.45662V10.1166ZM10.9351 9.57232L13.7849 6.72259L11.904 4.84169L9.05423 7.69141L10.9351 9.57232ZM13.7879 6.7195C13.9222 6.58432 14.082 6.47715 14.2581 6.40422L13.24 3.94676C12.7386 4.15449 12.2834 4.45974 11.9009 4.84479L13.7879 6.7195ZM14.2581 6.40422C14.4341 6.3313 14.6229 6.29405 14.8134 6.29466L14.8219 3.63467C14.2791 3.63295 13.7414 3.73903 13.24 3.94676L14.2581 6.40422ZM14.8177 6.29467H15.1608V3.63467H14.8177V6.29467ZM16.1012 4.02421L12.4822 0.405171L10.6013 2.28608L14.2203 5.90512L16.1012 4.02421ZM12.4824 0.405346C12.0909 0.013702 11.6261 -0.296975 11.1145 -0.508938L10.0963 1.94849C10.2851 2.02671 10.4566 2.14137 10.6011 2.2859L12.4824 0.405346ZM11.1145 -0.508938C10.6029 -0.720902 10.0545 -0.83 9.50077 -0.83V1.83C9.70513 1.83 9.90749 1.87026 10.0963 1.94849L11.1145 -0.508938ZM9.50077 -0.83C8.947 -0.83 8.39866 -0.720902 7.88707 -0.508938L8.90524 1.94849C9.09404 1.87026 9.2964 1.83 9.50077 1.83V-0.83ZM7.88707 -0.508938C7.37548 -0.296974 6.91066 0.0137033 6.51916 0.405346L8.40042 2.2859C8.5449 2.14137 8.71644 2.02671 8.90524 1.94849L7.88707 -0.508938ZM6.51894 0.405564L2.91314 4.01437L4.79483 5.89449L8.40063 2.28568L6.51894 0.405564ZM3.85399 6.28443H4.41262V3.62443H3.85399V6.28443ZM19.0948 7.01841L16.9079 4.83146L15.027 6.71236L17.2139 8.89932L19.0948 7.01841ZM15.4642 4.54077C15.5706 4.4973 15.6842 4.4744 15.7991 4.47327L15.8251 7.13315C16.0466 7.13098 16.2656 7.08684 16.4706 7.00304L15.4642 4.54077ZM15.8121 4.47321H14.8177V7.13321H15.8121V4.47321ZM14.8143 4.47321C13.9463 4.47539 13.1143 4.82011 12.4991 5.43243L14.3756 7.31774C14.4939 7.19994 14.654 7.13362 14.821 7.13321L14.8143 4.47321ZM12.4972 5.43433L9.64746 8.28225L11.5278 10.1638L14.3775 7.31583L12.4972 5.43433ZM9.64802 8.28169C9.64073 8.28897 9.63085 8.29306 9.62055 8.29306V10.9531C10.3355 10.9531 11.0212 10.6694 11.5272 10.1643L9.64802 8.28169ZM9.62055 8.29306C9.61025 8.29306 9.60037 8.28897 9.59308 8.28169L7.71389 10.1643C8.21988 10.6694 8.90561 10.9531 9.62055 10.9531V8.29306ZM9.59364 8.28225L6.73308 5.4235L4.85277 7.305L7.71333 10.1637L9.59364 8.28225ZM6.73158 5.422C6.11654 4.80931 5.28448 4.46422 4.41635 4.46178L4.40887 7.12177C4.57588 7.12224 4.73595 7.18863 4.85427 7.30649L6.73158 5.422ZM4.41261 4.46177H3.19181V7.12177H4.41261V4.46177ZM3.22175 4.46211C3.32756 4.46449 3.43213 4.48549 3.53066 4.52414L2.55921 7.00041C2.75143 7.07582 2.95544 7.11679 3.16187 7.12144L3.22175 4.46211ZM2.10538 4.82092L-0.0954208 7.01751L1.78368 8.90022L3.98448 6.70363L2.10538 4.82092ZM-0.0973224 7.01941C-0.886683 7.81045 -1.33 8.88233 -1.33 9.99984H1.33C1.33 9.58682 1.49384 9.19067 1.78558 8.89832L-0.0973224 7.01941ZM-1.33 9.99984C-1.33 11.1174 -0.886683 12.1892 -0.0973224 12.9803L1.78558 11.1014C1.49384 10.809 1.33 10.4129 1.33 9.99984H-1.33ZM-0.0963226 12.9813L2.09966 15.1773L3.98057 13.2964L1.78458 11.1004L-0.0963226 12.9813ZM3.5345 15.4715C3.43045 15.5132 3.31967 15.5354 3.20763 15.5372L3.16637 12.8775C2.95362 12.8808 2.74328 12.923 2.54573 13.0021L3.5345 15.4715ZM3.187 15.5373H4.41261V12.8773H3.187V15.5373ZM4.41651 15.5373C5.28452 15.5348 6.11644 15.1897 6.73146 14.5772L4.85439 12.6925C4.73598 12.8104 4.57581 12.8768 4.4087 12.8773L4.41651 15.5373ZM6.73338 14.5753L9.59334 11.7153L7.71243 9.83443L4.85247 12.6944L6.73338 14.5753ZM9.59279 11.7159C9.58446 11.7242 9.57973 11.7251 9.58464 11.7232C9.59061 11.7209 9.60329 11.7175 9.62047 11.7175C9.63766 11.7175 9.65022 11.7209 9.656 11.7231C9.66072 11.725 9.65573 11.7239 9.64716 11.7153L11.5281 9.83443C10.4919 8.79824 8.74904 8.79902 7.71298 9.83388L9.59279 11.7159ZM9.64726 11.7154L12.497 14.5646L14.3777 12.6835L11.528 9.83433L9.64726 11.7154ZM12.4991 14.5667C13.1143 15.179 13.9463 15.5237 14.8143 15.5259L14.821 12.8659C14.654 12.8655 14.4939 12.7991 14.3756 12.6813L12.4991 14.5667ZM14.8177 15.5259H15.8121V12.8659H14.8177V15.5259ZM15.8028 15.5258C15.6855 15.525 15.5693 15.5016 15.4608 15.4569L16.474 12.9974C16.2669 12.9121 16.0454 12.8675 15.8214 12.8659L15.8028 15.5258ZM16.9079 15.1676L19.0948 12.9807L17.2139 11.0998L15.027 13.2867L16.9079 15.1676ZM19.0947 12.9808C19.4863 12.5894 19.797 12.1245 20.0089 11.6129L17.5515 10.5948C17.4733 10.7836 17.3586 10.9551 17.2141 11.0996L19.0947 12.9808ZM20.0089 11.6129C20.2209 11.1013 20.33 10.553 20.33 9.99924H17.67C17.67 10.2036 17.6297 10.406 17.5515 10.5948L20.0089 11.6129ZM20.33 9.99924C20.33 9.44548 20.2209 8.89714 20.0089 8.38555L17.5515 9.40371C17.6297 9.59251 17.67 9.79488 17.67 9.99924H20.33ZM20.0089 8.38555C19.797 7.87395 19.4863 7.40913 19.0947 7.01764L17.2141 8.89889C17.3586 9.04337 17.4733 9.21491 17.5515 9.40371L20.0089 8.38555Z" fill="#1A1E82" mask="url(#path-1-inside-1_3500_1614)"/>
</svg>
