<svg width="18" height="14" viewBox="0 0 18 14" fill="none" xmlns="http://www.w3.org/2000/svg">
<path d="M12.3928 2.09394C12.0255 2.09394 11.7278 2.39167 11.7278 2.75894C11.7278 3.12621 12.0255 3.42394 12.3928 3.42394V2.09394ZM15.4039 2.75894V3.42396L15.4083 3.42393L15.4039 2.75894ZM15.927 3.11236L15.3084 3.35647L15.3096 3.35934L15.927 3.11236ZM16.9166 5.58632H17.5816C17.5816 5.50172 17.5654 5.4179 17.534 5.33935L16.9166 5.58632ZM1.08325 6.61775C0.715983 6.61775 0.418252 6.91548 0.418252 7.28275C0.418252 7.65002 0.715983 7.94775 1.08325 7.94775V6.61775ZM12.3928 7.94775C12.76 7.94775 13.0578 7.65002 13.0578 7.28275C13.0578 6.91548 12.76 6.61775 12.3928 6.61775V7.94775ZM1.08325 10.1101H0.418252H1.08325ZM1.64873 1.62799V2.29299V1.62799ZM12.3928 1.62799H13.0578C13.0578 1.26072 12.76 0.962991 12.3928 0.962991V1.62799ZM11.7278 9.20537C11.7278 9.57264 12.0255 9.87037 12.3928 9.87037C12.76 9.87037 13.0578 9.57264 13.0578 9.20537H11.7278ZM12.3928 4.92132C12.0255 4.92132 11.7278 5.21906 11.7278 5.58632C11.7278 5.95359 12.0255 6.25132 12.3928 6.25132V4.92132ZM12.3928 3.42394H15.4039V2.09394H12.3928V3.42394ZM15.4083 3.42393C15.3868 3.42407 15.3657 3.4177 15.3479 3.40566L16.0925 2.30364C15.888 2.16544 15.6464 2.09235 15.3996 2.09396L15.4083 3.42393ZM15.3479 3.40566C15.3301 3.39362 15.3163 3.37647 15.3084 3.35646L16.5456 2.86826C16.455 2.63866 16.297 2.44183 16.0925 2.30364L15.3479 3.40566ZM15.3096 3.35934L16.2991 5.8333L17.534 5.33935L16.5444 2.86539L15.3096 3.35934ZM1.08325 7.94775H12.3928V6.61775H1.08325V7.94775ZM14.2724 10.6756C14.2724 11.2453 13.8106 11.707 13.241 11.707V13.037C14.5452 13.037 15.6024 11.9798 15.6024 10.6756H14.2724ZM13.241 11.707C12.6713 11.707 12.2096 11.2453 12.2096 10.6756H10.8796C10.8796 11.9798 11.9368 13.037 13.241 13.037V11.707ZM12.2096 10.6756C12.2096 10.106 12.6713 9.64418 13.241 9.64418V8.31418C11.9368 8.31418 10.8796 9.37143 10.8796 10.6756H12.2096ZM13.241 9.64418C13.8106 9.64418 14.2724 10.106 14.2724 10.6756H15.6024C15.6024 9.37143 14.5452 8.31418 13.241 8.31418V9.64418ZM5.79028 10.6756C5.79028 11.2453 5.32849 11.707 4.75885 11.707V13.037C6.06303 13.037 7.12028 11.9798 7.12028 10.6756H5.79028ZM4.75885 11.707C4.1892 11.707 3.72742 11.2453 3.72742 10.6756H2.39742C2.39742 11.9798 3.45467 13.037 4.75885 13.037V11.707ZM3.72742 10.6756C3.72742 10.106 4.1892 9.64418 4.75885 9.64418V8.31418C3.45467 8.31418 2.39742 9.37143 2.39742 10.6756H3.72742ZM4.75885 9.64418C5.32849 9.64418 5.79028 10.106 5.79028 10.6756H7.12028C7.12028 9.37143 6.06303 8.31418 4.75885 8.31418V9.64418ZM11.5446 10.0106H6.45528V11.3406H11.5446V10.0106ZM3.06242 10.0106H1.64873V11.3406H3.06242V10.0106ZM1.64873 10.0106C1.67512 10.0106 1.70044 10.0211 1.7191 10.0398L0.77865 10.9802C1.00941 11.211 1.32239 11.3406 1.64873 11.3406V10.0106ZM1.7191 10.0398C1.73777 10.0584 1.74825 10.0837 1.74825 10.1101H0.418252C0.418252 10.4365 0.547891 10.7495 0.77865 10.9802L1.7191 10.0398ZM1.74825 10.1101V2.19347H0.418252V10.1101H1.74825ZM1.74825 2.19347C1.74825 2.21986 1.73777 2.24518 1.7191 2.26384L0.77865 1.32339C0.547891 1.55415 0.418252 1.86712 0.418252 2.19347H1.74825ZM1.7191 2.26384C1.70044 2.28251 1.67512 2.29299 1.64873 2.29299V0.962991C1.32239 0.962991 1.00941 1.09263 0.77865 1.32339L1.7191 2.26384ZM1.64873 2.29299H12.3928V0.962991H1.64873V2.29299ZM11.7278 1.62799V9.20537H13.0578V1.62799H11.7278ZM12.3928 6.25132L16.9166 6.25132V4.92132L12.3928 4.92132V6.25132ZM16.2516 5.58632V10.1101H17.5816V5.58632H16.2516ZM16.2516 10.1101C16.2516 10.0837 16.2621 10.0584 16.2807 10.0398L17.2212 10.9802C17.4519 10.7495 17.5816 10.4365 17.5816 10.1101H16.2516ZM16.2807 10.0398C16.2994 10.0211 16.3247 10.0106 16.3511 10.0106V11.3406C16.6774 11.3406 16.9904 11.211 17.2212 10.9802L16.2807 10.0398ZM16.3511 10.0106H14.9374V11.3406H16.3511V10.0106Z" fill="#828282"/>
</svg>
