<svg width="19" height="14" viewBox="0 0 19 14" fill="none" xmlns="http://www.w3.org/2000/svg">
<path d="M12.893 2.09394C12.5258 2.09394 12.228 2.39167 12.228 2.75894C12.228 3.12621 12.5258 3.42394 12.893 3.42394V2.09394ZM15.9042 2.75894V3.42396L15.9085 3.42393L15.9042 2.75894ZM16.4272 3.11236L15.8087 3.35647L15.8098 3.35934L16.4272 3.11236ZM17.4168 5.58632H18.0818C18.0818 5.50172 18.0657 5.4179 18.0343 5.33935L17.4168 5.58632ZM1.5835 6.61775C1.21623 6.61775 0.918496 6.91548 0.918496 7.28275C0.918496 7.65002 1.21623 7.94775 1.5835 7.94775V6.61775ZM12.893 7.94775C13.2603 7.94775 13.558 7.65002 13.558 7.28275C13.558 6.91548 13.2603 6.61775 12.893 6.61775V7.94775ZM1.5835 10.1101H0.918496H1.5835ZM2.14897 1.62799V2.29299V1.62799ZM12.893 1.62799H13.558C13.558 1.26072 13.2603 0.962991 12.893 0.962991V1.62799ZM12.228 9.20537C12.228 9.57264 12.5258 9.87037 12.893 9.87037C13.2603 9.87037 13.558 9.57264 13.558 9.20537H12.228ZM12.893 4.92132C12.5258 4.92132 12.228 5.21906 12.228 5.58632C12.228 5.95359 12.5258 6.25132 12.893 6.25132V4.92132ZM12.893 3.42394H15.9042V2.09394H12.893V3.42394ZM15.9085 3.42393C15.887 3.42407 15.866 3.4177 15.8481 3.40566L16.5928 2.30364C16.3882 2.16544 16.1467 2.09235 15.8998 2.09396L15.9085 3.42393ZM15.8481 3.40566C15.8303 3.39362 15.8166 3.37647 15.8087 3.35646L17.0458 2.86826C16.9552 2.63866 16.7973 2.44183 16.5928 2.30364L15.8481 3.40566ZM15.8098 3.35934L16.7994 5.8333L18.0343 5.33935L17.0447 2.86539L15.8098 3.35934ZM1.5835 7.94775H12.893V6.61775H1.5835V7.94775ZM14.7727 10.6756C14.7727 11.2453 14.3109 11.707 13.7412 11.707V13.037C15.0454 13.037 16.1027 11.9798 16.1027 10.6756H14.7727ZM13.7412 11.707C13.1716 11.707 12.7098 11.2453 12.7098 10.6756H11.3798C11.3798 11.9798 12.4371 13.037 13.7412 13.037V11.707ZM12.7098 10.6756C12.7098 10.106 13.1716 9.64418 13.7412 9.64418V8.31418C12.4371 8.31418 11.3798 9.37143 11.3798 10.6756H12.7098ZM13.7412 9.64418C14.3109 9.64418 14.7727 10.106 14.7727 10.6756H16.1027C16.1027 9.37143 15.0454 8.31418 13.7412 8.31418V9.64418ZM6.29052 10.6756C6.29052 11.2453 5.82873 11.707 5.25909 11.707V13.037C6.56327 13.037 7.62052 11.9798 7.62052 10.6756H6.29052ZM5.25909 11.707C4.68945 11.707 4.22766 11.2453 4.22766 10.6756H2.89766C2.89766 11.9798 3.95491 13.037 5.25909 13.037V11.707ZM4.22766 10.6756C4.22766 10.106 4.68945 9.64418 5.25909 9.64418V8.31418C3.95491 8.31418 2.89766 9.37143 2.89766 10.6756H4.22766ZM5.25909 9.64418C5.82873 9.64418 6.29052 10.106 6.29052 10.6756H7.62052C7.62052 9.37143 6.56327 8.31418 5.25909 8.31418V9.64418ZM12.0448 10.0106H6.95552V11.3406H12.0448V10.0106ZM3.56266 10.0106H2.14897V11.3406H3.56266V10.0106ZM2.14897 10.0106C2.17537 10.0106 2.20068 10.0211 2.21935 10.0398L1.27889 10.9802C1.50965 11.211 1.82263 11.3406 2.14897 11.3406V10.0106ZM2.21935 10.0398C2.23801 10.0584 2.2485 10.0837 2.2485 10.1101H0.918496C0.918496 10.4365 1.04813 10.7495 1.27889 10.9802L2.21935 10.0398ZM2.2485 10.1101V2.19347H0.918496V10.1101H2.2485ZM2.2485 2.19347C2.2485 2.21986 2.23801 2.24518 2.21935 2.26384L1.27889 1.32339C1.04814 1.55415 0.918496 1.86712 0.918496 2.19347H2.2485ZM2.21935 2.26384C2.20068 2.28251 2.17537 2.29299 2.14897 2.29299V0.962991C1.82263 0.962991 1.50965 1.09263 1.27889 1.32339L2.21935 2.26384ZM2.14897 2.29299H12.893V0.962991H2.14897V2.29299ZM12.228 1.62799V9.20537H13.558V1.62799H12.228ZM12.893 6.25132L17.4168 6.25132V4.92132L12.893 4.92132V6.25132ZM16.7518 5.58632V10.1101H18.0818V5.58632H16.7518ZM16.7518 10.1101C16.7518 10.0837 16.7623 10.0584 16.781 10.0398L17.7214 10.9802C17.9522 10.7495 18.0818 10.4365 18.0818 10.1101H16.7518ZM16.781 10.0398C16.7996 10.0211 16.825 10.0106 16.8514 10.0106V11.3406C17.1777 11.3406 17.4907 11.211 17.7214 10.9802L16.781 10.0398ZM16.8514 10.0106H15.4377V11.3406H16.8514V10.0106Z" fill="#1A1E82"/>
</svg>
