<svg width="19" height="18" viewBox="0 0 19 18" fill="none" xmlns="http://www.w3.org/2000/svg">
<path d="M2.57292 10.0043V15.927C2.57292 16.1107 2.6459 16.2869 2.77581 16.4168C2.90571 16.5467 3.08191 16.6197 3.26562 16.6197H15.7344C15.9181 16.6197 16.0943 16.5467 16.2242 16.4168C16.3541 16.2869 16.4271 16.1107 16.4271 15.927V10.0043M17.8125 6.22909L16.5743 1.88234C16.5316 1.73825 16.4438 1.61167 16.3238 1.52125C16.2037 1.43083 16.0578 1.38136 15.9076 1.38013H3.09245C2.94217 1.38136 2.79627 1.43083 2.67624 1.52125C2.5562 1.61167 2.46838 1.73825 2.42572 1.88234L1.1875 6.22909M17.8125 6.22909H1.1875M17.8125 6.22909V7.6145C17.8125 8.34937 17.5206 9.05414 17.0009 9.57378C16.4813 10.0934 15.7765 10.3853 15.0417 10.3853C14.3068 10.3853 13.602 10.0934 13.0824 9.57378C12.5628 9.05414 12.2708 8.34937 12.2708 7.6145M1.1875 6.22909V7.6145C1.1875 8.34937 1.47943 9.05414 1.99906 9.57378C2.51869 10.0934 3.22346 10.3853 3.95833 10.3853C4.6932 10.3853 5.39798 10.0934 5.91761 9.57378C6.43724 9.05414 6.72917 8.34937 6.72917 7.6145M6.72917 6.22909V7.6145M6.72917 7.6145C6.72917 8.34937 7.02109 9.05414 7.54072 9.57378C8.06036 10.0934 8.76513 10.3853 9.5 10.3853C10.2349 10.3853 10.9396 10.0934 11.4593 9.57378C11.9789 9.05414 12.2708 8.34937 12.2708 7.6145M12.2708 6.22909V7.6145" stroke="#1A1E82" stroke-width="1.33" stroke-linecap="round" stroke-linejoin="round"/>
</svg>
